#!OML:ASF H:\Pregnant\Project 1\Capture day 1\Session 1\femalepreg.ASF
:FULLY-SPECIFIED
:DEGREES
188
root 7.2883 15.7629 24.9368 23.9074 -83.2015 -6.75007
lowerback -23.2666 1.08372 -1.20314
upperback -6.32393 1.32342 -0.827345
thorax 6.00897 0.45157 0.139118
lowerneck -22.4289 2.35459 3.59793
upperneck 27.3087 0.611033 3.53282
head 12.8947 1.04573 0.84464
rclavicle -1.14301e-015 3.97569e-015
rhumerus -5.40355 -16.4731 -47.3101
rradius 125.006
rwrist -41.6794
rhand -43.2355 -30.5448
rfingers 7.12502
rthumb -16.0852 -59.8972
lclavicle -1.14301e-015 3.97569e-015
lhumerus -41.1766 -16.4224 91.2934
lradius 30.589
lwrist 42.0067
lhand -27.4092 -4.38017
lfingers 7.12502
lthumb -0.815292 25.598
rfemur -23.1658 21.5556 13.174
rtibia 25.3189
rfoot -15.2959 -23.6494
rtoes -7.22384
lfemur 0 0 0
ltibia 0
lfoot 0 0
ltoes 0
189
root 7.29042 15.7629 24.9365 23.9614 -83.2061 -6.81532
lowerback -23.2643 1.06345 -1.2018
upperback -6.33485 1.29386 -0.803705
thorax 5.99556 0.437022 0.15564
lowerneck -22.3878 2.36855 3.59931
upperneck 27.29 0.648454 3.48893
head 12.8784 1.05567 0.833054
rclavicle -3.85145e-014 5.56597e-015
rhumerus -5.35654 -16.4662 -47.404
rradius 124.7
rwrist -39.8211
rhand -42.8996 -27.6668
rfingers 7.12502
rthumb -15.7617 -57.0451
lclavicle -3.85145e-014 5.56597e-015
lhumerus -41.2147 -16.392 91.3206
lradius 30.6059
lwrist 41.9556
lhand -27.4219 -4.36521
lfingers 7.12502
lthumb -0.827565 25.6129
rfemur -23.1652 21.557 13.1812
rtibia 25.3209
rfoot -15.3054 -23.6316
rtoes -7.15487
lfemur 0 0 0
ltibia 0
lfoot 0 0
ltoes 0
190
root 7.29263 15.7629 24.9363 24.0184 -83.213 -6.88322
lowerback -23.264 1.0457 -1.19858
upperback -6.34219 1.26787 -0.785359
thorax 5.98727 0.42425 0.16641
lowerneck -22.3669 2.38038 3.60728
upperneck 27.2832 0.678218 3.44582
head 12.8712 1.06338 0.819819
rclavicle -2.76311e-014 9.93923e-015
rhumerus -5.38948 -16.2557 -47.4829
rradius 124.194
rwrist -35.6476
rhand -42.2618 -24.0044
rfingers 7.12502
rthumb -15.1474 -53.4301
lclavicle -2.76311e-014 9.93923e-015
lhumerus -41.248 -16.3782 91.349
lradius 30.6213
lwrist 41.9118
lhand -27.4355 -4.34449
lfingers 7.12502
lthumb -0.840673 25.6336
rfemur -23.1666 21.5591 13.1876
rtibia 25.3237
rfoot -15.3112 -23.6137
rtoes -7.10829
lfemur 0 0 0
ltibia 0
lfoot 0 0
ltoes 0
191
root 7.29486 15.7628 24.936 24.0764 -83.2236 -6.95293
lowerback -23.2653 1.03055 -1.19432
upperback -6.34531 1.24578 -0.77235
thorax 5.98456 0.413427 0.171936
lowerneck -22.3636 2.39107 3.62122
upperneck 27.2833 0.70159 3.40624
head 12.8705 1.06967 0.806208
rclavicle -1.50082e-014 1.31198e-014
rhumerus -5.50074 -15.8936 -47.5407
rradius 123.503
rwrist -29.4926
rhand -41.6979 -20.0723
rfingers 7.12502
rthumb -14.6041 -49.5381
lclavicle -1.50082e-014 1.31198e-014
lhumerus -41.2629 -16.3506 91.3613
lradius 30.6175
lwrist 41.8376
lhand -27.4378 -4.33121
lfingers 7.12502
lthumb -0.842957 25.6469
rfemur -23.1697 21.5569 13.1945
rtibia 25.3286
rfoot -15.3119 -23.5924
rtoes -7.10088
lfemur 0 0 0
ltibia 0
lfoot 0 0
ltoes 0
192
root 7.29713 15.7627 24.9357 24.1141 -83.2379 -7.00343
lowerback -23.2668 1.0233 -1.1863
upperback -6.34414 1.23458 -0.774245
thorax 5.98694 0.407966 0.162225
lowerneck -22.3763 2.39718 3.64896
upperneck 27.2848 0.709439 3.37485
head 12.874 1.0719 0.791009
rclavicle -2.03754e-015 -7.95139e-015
rhumerus -5.68587 -15.4967 -47.5786
rradius 122.622
rwrist -21.8497
rhand -41.7409 -16.4075
rfingers 7.12502
rthumb -14.6456 -45.8703
lclavicle -2.03754e-015 -7.95139e-015
lhumerus -41.2568 -16.322 91.3495
lradius 30.5932
lwrist 41.7338
lhand -27.4224 -4.32502
lfingers 7.12502
lthumb -0.828098 25.6531
rfemur -23.1737 21.5531 13.1979
rtibia 25.3364
rfoot -15.3186 -23.5642
rtoes -7.09031
lfemur 0 0 0
ltibia 0
lfoot 0 0
ltoes 0
193
root 7.29948 15.7625 24.9354 24.1191 -83.257 -7.02231
lowerback -23.2678 1.0209 -1.18129
upperback -6.33919 1.23147 -0.786287
thorax 5.99327 0.406473 0.14551
lowerneck -22.3994 2.39979 3.68675
upperneck 27.2829 0.706125 3.34939
head 12.8785 1.07118 0.77458
rclavicle -4.37326e-015 1.39149e-014
rhumerus -5.91764 -15.1833 -47.593
rradius 121.551
rwrist -13.2359
rhand -42.5618 -13.3105
rfingers 7.12502
rthumb -15.4363 -42.7141
lclavicle -4.37326e-015 1.39149e-014
lhumerus -41.2477 -16.3273 91.3401
lradius 30.5701
lwrist 41.6486
lhand -27.4047 -4.31945
lfingers 7.12502
lthumb -0.810954 25.6588
rfemur -23.1791 21.5474 13.1964
rtibia 25.347
rfoot -15.3294 -23.5298
rtoes -7.08072
lfemur 0 0 0
ltibia 0
lfoot 0 0
ltoes 0
194
root 7.30189 15.7625 24.9351 24.1016 -83.279 -7.01989
lowerback -23.2683 1.02655 -1.17434
upperback -6.32988 1.23989 -0.813239
thorax 6.00444 0.410659 0.114761
lowerneck -22.4318 2.39631 3.73546
upperneck 27.2732 0.685611 3.33673
head 12.8819 1.06585 0.758289
rclavicle -1.963e-014 -2.38542e-015
rhumerus -6.16918 -15.0737 -47.5872
rradius 120.328
rwrist -4.22653
rhand -44.3079 -11.2835
rfingers 7.12502
rthumb -17.1176 -40.5494
lclavicle -1.963e-014 -2.38542e-015
lhumerus -41.2394 -16.3914 91.3344
lradius 30.5545
lwrist 41.6027
lhand -27.3771 -4.30681
lfingers 7.12502
lthumb -0.784267 25.6715
rfemur -23.1849 21.5428 13.1918
rtibia 25.3601
rfoot -15.3445 -23.4944
rtoes -7.06593
lfemur 0 0 0
ltibia 0
lfoot 0 0
ltoes 0
195
root 7.3044 15.7624 24.9347 24.0672 -83.3035 -7.00047
lowerback -23.2694 1.02681 -1.1772
upperback -6.31746 1.24339 -0.83418
thorax 6.01899 0.412459 0.0947876
lowerneck -22.4652 2.39311 3.77333
upperneck 27.2538 0.668938 3.32825
head 12.8814 1.06163 0.745988
rclavicle 8.69683e-015 6.36111e-015
rhumerus -6.37475 -15.2184 -47.56
rradius 119.015
rwrist 4.60541
rhand -46.7281 -10.3009
rfingers 7.12502
rthumb -19.4459 -39.3485
lclavicle 8.69683e-015 6.36111e-015
lhumerus -41.2381 -16.4766 91.3474
lradius 30.5529
lwrist 41.6049
lhand -27.3506 -4.28887
lfingers 7.12502
lthumb -0.758741 25.6895
rfemur -23.1921 21.5321 13.1859
rtibia 25.3744
rfoot -15.357 -23.4559
rtoes -7.05776
lfemur 0 0 0
ltibia 0
lfoot 0 0
ltoes 0
196
root 7.30704 15.7623 24.9342 24.0271 -83.3287 -6.97556
lowerback -23.2696 1.02793 -1.18427
upperback -6.30364 1.24902 -0.854007
thorax 6.03445 0.415325 0.0790183
lowerneck -22.4962 2.38528 3.80266
upperneck 27.2238 0.648269 3.32423
head 12.876 1.05526 0.735957
rclavicle 2.87244e-014 1.70955e-014
rhumerus -6.52108 -15.629 -47.5116
rradius 117.708
rwrist 12.6637
rhand -49.5185 -9.86072
rfingers 7.12502
rthumb -22.1269 -38.6146
lclavicle 2.87244e-014 1.70955e-014
lhumerus -41.2456 -16.5976 91.3809
lradius 30.5634
lwrist 41.6538
lhand -27.3254 -4.26803
lfingers 7.12502
lthumb -0.734411 25.7104
rfemur -23.1997 21.5213 13.1795
rtibia 25.3884
rfoot -15.3649 -23.4194
rtoes -7.05862
lfemur 0 0 0
ltibia 0
lfoot 0 0
ltoes 0
